<?xml version="1.0" standalone="no"?>
<!DOCTYPE svg PUBLIC "-//W3C//DTD SVG 20010904//EN"
 "http://www.w3.org/TR/2001/REC-SVG-20010904/DTD/svg10.dtd">
<svg version="1.0" xmlns="http://www.w3.org/2000/svg"
 width="83.000000pt" height="38.000000pt" viewBox="0 0 83.000000 38.000000"
 preserveAspectRatio="xMidYMid meet">

<g transform="translate(0.000000,38.000000) scale(0.100000,-0.100000)"
fill="#000000" stroke="none">
<path d="M90 335 c0 -12 15 -15 75 -15 60 0 75 -3 75 -15 0 -9 -22 -55 -50
-104 -27 -49 -50 -91 -50 -94 0 -4 30 -8 68 -10 l67 -3 -77 -2 c-48 -1 -78 2
-78 8 0 6 10 27 23 48 13 20 38 63 56 95 l32 57 -70 0 c-55 0 -71 -3 -71 -14
0 -10 14 -16 45 -18 l44 -3 -44 -75 c-47 -80 -55 -114 -29 -124 9 -3 56 -6
105 -6 l88 0 3 133 3 132 68 -98 c38 -54 67 -100 65 -103 -3 -2 -31 34 -63 81
-32 47 -60 85 -62 85 -2 0 -3 -52 -3 -115 0 -94 3 -115 15 -115 10 0 15 15 17
59 l3 60 45 -57 c41 -52 49 -57 87 -59 l42 -2 3 132 3 132 68 -98 c38 -54 67
-100 65 -103 -3 -2 -31 34 -63 81 -32 47 -60 85 -62 85 -2 0 -3 -52 -3 -115 0
-94 3 -115 15 -115 10 0 15 15 17 59 l3 60 45 -57 c33 -42 52 -57 70 -57 l25
0 3 143 c2 122 0 142 -13 142 -13 0 -15 -20 -15 -132 0 -72 -3 -128 -7 -125
-3 4 -5 63 -4 132 2 106 0 125 -13 125 -12 0 -16 -15 -18 -66 l-3 -66 -47 66
c-48 66 -64 76 -86 54 -9 -9 -12 -9 -12 0 0 7 -7 12 -15 12 -13 0 -15 -21 -15
-132 0 -72 -3 -128 -7 -125 -3 4 -5 63 -4 132 2 106 0 125 -13 125 -12 0 -16
-15 -18 -66 l-3 -66 -47 66 c-47 65 -64 76 -85 55 -8 -8 -13 -8 -17 0 -4 7
-42 11 -92 11 -68 0 -84 -3 -84 -15z m180 -130 l0 -75 -40 0 c-22 0 -40 3 -40
6 0 7 74 144 78 144 1 0 2 -34 2 -75z"/>
</g>
</svg>
